<svg fill="#99f6e4" height="512pt" preserveAspectRatio="xMidYMid meet" viewBox="0 0 512 512" width="512pt" xmlns="http://www.w3.org/2000/svg">

<defs>
    <linearGradient id="myGradient" gradientTransform="rotate(90)">
      <stop offset="5%" stop-color="#99f6e4" />
      <stop offset="95%" stop-color="#c9fea9" />
    </linearGradient>
  </defs>
<g fill="url('#myGradient')" transform="matrix(.003922 0 0 -.003922 0 512)">
<path d="m60697 117139c-1251-526-1518-1547-1775-6791-125-2557-139-4806-32-4998 108-192 140-1412 72-2710-176-3371 1145-7215 2864-8337 146-95 783-645 1414-1221 1361-1243 3041-2078 5483-2723 2353-622 15766-676 17820-72 1930 568 2079-75-2091 9036-706 1542-1743 3895-2303 5227-2383 5662-5219 11648-5800 12240l-626 638-7118 22c-5319 16-7317-62-7908-311z"/>
<path d="m54737 109464c-374-733-1873-4118-3332-7522-1458-3404-3077-7107-3597-8229s-1401-3131-1958-4463-1396-3340-1865-4462-1396-3131-2061-4463c-1430-2867-1422-2662-188-5214l977-2019 1761-706c968-388 2543-943 3500-1234 2674-812 2931-2985 754-6382-421-657-1043-2104-1043-2427 0-170-246-622-547-1005-1198-1522-1166-3704 65-4452 837-510 10480-477 11123 37 202 162 307 944 296 2200-10 1072 105 2868 255 3990 151 1122 344 2671 430 3442 458 4134 1457 953 1419-4515-25-3471 131-4023 936-3319 3149 2750 5491 2651 10651-451 1664-1000 2035 623 1114 4868-473 2178 237 4947 1268 4947 373 0 507-239 606-1084 348-2966 750-5251 1066-6056 193-491 411-1498 485-2237 195-1941-125-1843 6015-1843h5573l687 816c1032 1227 118 4444-2258 7945-1915 2821-1714 4715 596 5628 4054 1601 4845 2177 4845 3530 0 807 649 2226 1018 2226 835 0 731 1032-313 3101-590 1169-1546 3217-2124 4549l-1051 2423-1634-10c-898-6-4387-108-7753-227-5956-212-9137-38-11475 624-421 119-1511 420-2423 668-8224 2238-10814 5982-10775 15579 28 7003-85 7625-1043 5747zm11961-25250c1004-2375-2-10519-1301-10519-433 0-612 533-350 1044 115 224 201 1257 190 2295-10 1039-28 3036-39 4439-29 3490 654 4739 1500 2741zm-8099-765c3094-1677 4158-5621 1839-6820-2031-1050-3312 110-3317 3003-2 1412-624 1528-1728 323l-884-964 177-2031c213-2441-371-2708-1764-805-426 582-1039 1185-1362 1339-829 399-1451 1969-1091 2758 152 334 276 930 276 1326 0 654 737 1910 1394 2377 766 544 5156 200 6460-506zm20396-38c1121-160 1542-381 2507-1320 2116-2060 2248-2860 765-4625-437-520-1052-1266-1367-1657-775-962-1386-283-1308 1454 142 3200-3074 5080-3351 1960-305-3429-4588-3490-4585-65 4 3276 2804 4898 7339 4253zm3282-14115c108-175 219-950 245-1721 57-1662 417-3701 810-4590 1020-2308 899-3825-305-3825-1686 0-3055 3260-3252 7742l-87 2005 892 324c1192 432 1464 442 1697 65zm-27242-455c717-437 824-623 696-1210-82-381-259-1325-393-2096-1008-5835-1302-6630-2449-6630-1213 0-1254 290-472 3343 374 1457 717 3538 763 4624 114 2731 294 2921 1855 1969z"/>
<path d="m43146 70584c-168-168-306-904-306-1635 0-1641-685-2326-3143-3144-2005-667-2483-1160-3464-3571-425-1044-1116-2377-1537-2962-1427-1988-1591-2921-1530-8746 103-9958 1093-11960 7139-14435l2126-870 4348 141c4752 153 5493 1 7840-1613 517-356 1063-573 1211-481 368 228 353 6708-18 7772-297 852-102 1942 663 3713 364 841 404 7653 49 8223-129 207-839 319-2016 319-3655 0-11642 2449-12501 3834-288 464 1328 3935 3497 7514 1893 3122 1797 4632-364 5734-1159 592-1567 634-1994 207z"/>
<path d="m91141 70528c-1635-712-2264-2139-1428-3237 255-335 880-1497 1389-2583 510-1086 1256-2463 1659-3060 2671-3959 818-6863-4531-7097-771-34-4389-44-8039-21l-6637 40-3038 1913c-3453 2173-3511 2186-5150 1147-663-421-1296-765-1406-765s-805-388-1544-862c-2910-1867-4047-4430-3081-6948 335-872 2306 70 3015 1439 853 1651 3551 1029 7775-1793 351-235 1144-760 1763-1167l1125-741 11752-128 11753-127 1827-829c2776-1259 2637-1401 2623 2677-27 7530-514 9687-3038 13452-376 561-1064 1823-1530 2805-465 981-1059 2058-1320 2392-260 333-596 1064-747 1623-515 1912-1614 2556-3192 1870z"/>
<path d="m64005 48064c-351-203-1063-489-1583-636-2052-580-3879-4054-4206-7994-163-1966 153-2244 1222-1070 463 510 1250 1173 1749 1475 498 301 1305 870 1792 1264 488 395 1078 717 1310 717 467 0 5958-2785 7361-3735 489-330 1054-600 1255-600 202 0 567-181 811-402 389-352 1931-409 12388-462 12617-65 12688-71 14051-1272 931-821 1238-254 841 1554-760 3459-2664 5478-6426 6813-1000 354-2006 401-6503 303-2926-64-5606-112-5957-106s-2595 25-4988 43l-4351 32-2534 1500c-1394 826-3087 1830-3763 2231-1393 829-1584 856-2469 345z"/>
<path d="m62475 37452c-2735-1689-4355-3551-3931-4516 102-233 254-1390 337-2571l152-2147 1543 1286c3102 2584 3084 2583 7466 431 2745-1348 3741-1711 4988-1817 3625-308 3995-1204 4171-10092 200-10117-567-9483 11494-9483h8843l969 602c2362 1468 2581 2575 2375 11975l-169 7733-720 1587c-698 1540-774 1612-2607 2452l-1888 865-5160 90c-3468 61-5334-3-5690-193-393-211-623-208-886 10-235 195-1592 289-4000 278-4973-24-7934 247-8527 780-967 869-6040 3782-6562 3768-297-8-1286-475-2198-1038z"/>
<path d="m33064 36784c-64-105-42-5913 49-12907l165-12716 1064-944c1916-1701 2967-1862 11439-1762l7387 88 1176 691c1272 748 1870 1770 1817 3106-17 436-67 4008-110 7938l-78 7146-858 1336c-1669 2602-3750 3303-10745 3622-5203 238-7335 956-9643 3247-1432 1422-1480 1456-1663 1155z"/>
<path d="m64172 28094c-232-257-422-633-422-836 0-680-758-1461-1722-1775-1073-349-2576-1544-3062-2434-607-1111-311-9388 339-9481 1282-185 2075 2241 2358 7215l175 3060 4531 69c3500 54 4553-4 4624-255 51-178 210-783 354-1344s502-1881 795-2933c292-1052 706-2544 919-3315 487-1767 734-2154 1246-1958 356 137 408 827 408 5389v5232l-956 414c-526 228-1301 512-1721 631-421 119-1339 380-2040 580-702 200-1904 778-2672 1285-1546 1021-2516 1161-3154 456z"/></g></svg>